# xmcd
#
# Track frame offsets:
#	150
#	14552
#	28995
#	47847
#	65127
#	88410
#	107620
#	129650
#	146130
#	165475
#	187502
#	208527
#	231450
#	251242
#	273492
#	286445
#
# Disc length: 4034 seconds
#
# Revision: 1
# Processed by: cddbd v1.5.1PL0 Copyright (c) Steve Scherf et al.
# Submitted via: CDex 1.50Beta5
#
DISCID=fa0fc010
DTITLE=美空ひばり - 特選集 流れ人
DYEAR=1999
DGENRE=Pop
TTITLE0=リンゴ追分
TTITLE1=伊豆の踊り子
TTITLE2=哀愁出船
TTITLE3=柔
TTITLE4=お島千太郎
TTITLE5=のれん一代
TTITLE6=悲しい酒
TTITLE7=思い出の鞄
TTITLE8=花風の港
TTITLE9=残侠子守唄
TTITLE10=竜馬残影
TTITLE11=愛燦燦
TTITLE12=みだれ髪
TTITLE13=川の流れのように
TTITLE14=元禄港歌
TTITLE15=流れ人
EXTD=
EXTT0=
EXTT1=
EXTT2=
EXTT3=
EXTT4=
EXTT5=
EXTT6=
EXTT7=
EXTT8=
EXTT9=
EXTT10=
EXTT11=
EXTT12=
EXTT13=
EXTT14=
EXTT15=
PLAYORDER=
